<?xml version="1.0" encoding="utf-8"?>
<svg version="1.1" xmlns="http://www.w3.org/2000/svg" viewBox="0 0 1000 1000">
<path fill="#E12438" d="M554.3,850.5H448.7v-14.9h105.6V850.5z"/>
<path fill="#28547E" d="M259.5,736.5v-90.7c0-7.2,6.6-13.1,14.3-13.1h57.3v4.2c0,7.8-6.6,13.7-14.9,13.7h-34c-0.6,0-1.2,0.6-1.2,1.2v23.3c0,0.6,0.6,1.2,1.2,1.2H324v4.2c0,7.8-6.6,13.7-14.9,13.7h-26.8c-0.6,0-1.2,0.6-1.2,1.2v41.2H259.5L259.5,736.5z"/>
<path fill="#28547E" d="M435,736.5v-91.3c0-6.6,6-12.5,13.7-12.5h7.8v103.8H435z"/>
<path fill="#28547E" d="M720.2,736.5v-91.3c0-7.2,6-12.5,13.7-12.5h7.8v103.8H720.2z"/>
<path fill="#28547E" d="M688.5,725.2c9.5-8.9,14.9-22.1,14.9-36.4v-56.1h-7.2c-7.8,0-13.7,5.4-13.7,12.5v43.6c0,18.5-12.5,31-30.4,31c-17.9,0-30.4-12.5-30.4-31v-56.1h-7.2c-7.8,0-13.7,5.4-13.7,12.5v43.6c0,14.3,5.4,26.8,14.9,36.4c9.5,9,22.7,13.7,36.4,13.7C665.9,738.9,679,734.1,688.5,725.2"/>
<path fill="#28547E" d="M205.8,632.7L205.8,632.7c-10.1,0-19.1,5.4-23.3,13.7l-41.2,90.1h23.3l32.8-76.4l11.9,31.6h-4.8c-8.4,0-15.5,4.8-18.5,13.1l-1.8,4.8h34l11.9,26.8h23.3L205.8,632.7L205.8,632.7z"/>
<path fill="#28547E" d="M810.9,632.7L810.9,632.7c-10.1,0-19.1,5.4-23.3,13.7l-41.2,90.1h23.3l32.8-76.4l11.9,31.6h-4.8c-8.4,0-15.5,4.8-18.5,13.1l-1.8,4.8h34l11.9,26.8h23.3L810.9,632.7L810.9,632.7z"/>
<path fill="#28547E" d="M423,736.5l-33.4-38.2c10.7-2.4,17.3-6,22.7-12.5c4.8-5.4,7.2-13.7,7.2-20.9c0-7.8-3-14.9-8.4-20.9c-7.8-8.4-17.3-11.3-32.8-11.3h-26.9c-7.2,0-13.1,5.4-13.1,11.9v91.9h21.5v-34.6v-4.8v-14.3v-6.6v-25.1h17.9c12.5,0,20.3,6,20.3,15.5c0,10.1-7.8,16.1-19.1,16.1c-8.4,0-12.5,4.8-13.1,9.5c-0.6,4.2,1.2,8.9,3.6,11.9l28,32.8H423V736.5z"/>
<path fill="#28547E" d="M528.6,720.4c-22.1,0-40-16.1-40-35.8s17.9-35.8,40-35.8c22.1,0,40,16.1,40,35.8C568,704.3,550.1,720.4,528.6,720.4 M584.1,722.2H577c-2.4,0-4.8,0-7.2,0.6h-0.6l0,0c1.8-1.2,3.6-3,5.4-4.8c9.5-10.7,14.3-24.5,12.5-38.8c-3-25.1-25.1-45.9-53.1-48.3c-36.4-3.6-67.4,23.3-65.6,56.1c1.2,29.2,28.6,51.3,60.9,51.3h68.6v-3.6C598.5,727.6,591.9,722.2,584.1,722.2"/>
<path fill="#28547E" d="M640.8,753.2c-3.6,0-7.2,3-7.2,6.6v48.3h8.4v-54.9H640.8L640.8,753.2z"/>
<path fill="#28547E" d="M466.6,778.9c6,0,10.1,4.8,10.1,11.3c0,4.8-2.4,8.4-6,10.1l-1.2,0.6c-1.2,0.6-1.8,0.6-3,0.6c-6,0-10.1-4.8-10.1-11.3C457,783.7,460.6,778.9,466.6,778.9 M514.3,777.7v13.7c0,3.6-0.6,5.4-0.6,6c-1.2,1.8-3.6,3-6.6,3h-23.3c1.8-3,3-6.6,3-10.1c0-10.7-7.8-18.5-19.1-18.5c-11.3,0-19.1,7.8-19.1,18.5c0,3,0.6,6,2.4,8.9l0.6,1.2h-33.4l1.2-1.2c1.2-1.8,1.8-4.2,1.8-8.9v-19.1h-3c-3.6,0-6.6,3-6.6,6.6v13.7c0,3-0.6,5.4-1.2,6.6c-1.2,1.8-3,3-6.6,3h-22.1c-3.6,0-6.6-0.6-7.8-1.2c-1.8-1.2-3-4.2-3-8.4v-31h-2.4c-3.6,0-6,2.4-6,6v29.2c0,4.2,1.2,7.8,3.6,10.1c2.4,3,6,4.2,10.1,4.2h133.1c9.5,0,14.3-4.8,14.3-14.3v-23.3h-1.8C517.3,771.1,514.3,774.1,514.3,777.7"/>
<path fill="#28547E" d="M506,822.5h7.8v-7.2H506V822.5z"/>
<path fill="#28547E" d="M491.1,822.5h7.8v-7.2h-7.8V822.5z"/>
<path fill="#28547E" d="M396.8,822.5h7.8v-7.2h-7.8V822.5z"/>
<path fill="#28547E" d="M411.7,822.5h7.8v-7.2h-7.8V822.5z"/>
<path fill="#28547E" d="M462.4,753.8h-7.8v7.2h7.8V753.8z"/>
<path fill="#28547E" d="M477.3,753.8h-7.8v7.2h7.8V753.8z"/>
<path fill="#28547E" d="M601.4,753.8h-7.8v7.2h7.8V753.8z"/>
<path fill="#28547E" d="M597.9,778.9c6,0,10.1,4.8,10.1,11.3c0,6.6-4.2,10.7-10.1,10.7c-6,0-10.1-4.8-10.1-11.3C588.3,783.7,591.9,778.9,597.9,778.9 M598.5,771.7c-11.3,0-19.1,7.8-19.1,18.5c0,3,0.6,6,2.4,8.9l0.6,1.2h-30.4V789h-1.2c-4.2,0-7.2,3-7.2,7.2v15.5c0,6-2.4,10.1-7.8,11.3c-2.4,0.6-4.2,3-4.2,5.4v1.8h0.6c10.7-0.6,17.9-4.8,19.1-12.5v-0.6c0-1.8,0.6-6.6,0.6-7.8v-0.6h46.5c11.3,0,19.1-7.8,19.1-17.9C617.5,779.5,609.2,771.7,598.5,771.7"/>
<path fill="#FFFFFF" d="M729.1,333.2c-0.6-1.2-1.2-3-1.2-4.2c-1.8-6-4.2-11.3-6.6-16.7c-0.6-1.2-1.2-3-1.8-4.2c-1.2-2.4-2.4-5.4-3.6-7.8c-1.2-2.4-2.4-4.8-3.6-7.2c-9-16.7-19.1-31-28-41.2c-0.6-0.6-1.2-1.2-1.8-2.4c-1.2-1.2-2.4-2.4-3.6-4.2c-2.4-3-4.8-5.4-7.2-7.8c-1.8-1.8-3.6-3.6-5.4-5.4l0,0c-23.9-22.7-54.9-44.2-96.7-57.3c-113.4-36.4-196.9-24.5-256-3.6l0,0l0,0c-2.4,0.6-4.2,1.8-6.6,2.4l0,0c-6,2.4-11.3,4.8-16.1,6.6c-3,1.2-5.4,3-7.8,4.2c-3,1.8-6,3.6-8.4,5.4c-1.8,1.2-3.6,2.4-4.8,3.6c-1.2,0.6-1.8,1.8-2.4,2.4c-6,5.4-7.8,9.5-8.4,10.7c-1.2,3-4.2,12.5,7.8,28.6c20.9,28.6,74,64.4,74,64.4s18.5,10.1,31,15.5c12.5,5.4,39.4,16.7,39.4,16.7s-25.1-28.6-51.3-53.7c-1.2-1.2-5.4-4.8-10.1-10.1c17.9-16.7,63.2-32.2,168.9-22.1c78.8,7.8,134.2,34,168.9,55.5c6,40-4.8,75.8-32.2,122.3c-28,47.7-97.3,92.5-152.1,111.6c-37-57.9-33.4-124.7-84.1-194.5c-4.8-6.6-6-7.8-7.2-8.9c0,0,0,18.5-10.7,53.7c-4.8,15.5-11.9,33.4-20.3,64.4c-7.2,28-3.6,52.5,4.8,72.8l0,0l0,0c0.6,1.2,1.2,2.4,1.8,3.6v0.6c0.6,1.2,1.2,2.4,1.8,3.6c0,0,0,0,0,0.6c0.6,1.2,1.2,2.4,1.8,3.6l0,0c0.6,1.2,1.2,2.4,2.4,3.6l0,0c0.6,1.2,1.8,2.4,2.4,3.6l0,0c0.6,1.2,1.2,2.4,2.4,3c0,0,0,0,0,0.6c0.6,1.2,1.2,1.8,2.4,3c0,0,0,0,0.6,0.6c0.6,1.2,1.8,1.8,2.4,3c0,0,0,0,0,0.6c0.6,1.2,1.8,1.8,2.4,3l0,0c0.6,1.2,1.8,1.8,2.4,3l0,0c0.6,1.2,1.8,1.8,2.4,2.4l0,0c0.6,0.6,1.8,1.8,2.4,2.4c0,0,0,0,0.6,0.6s1.8,1.2,2.4,1.8c0,0,0,0,0.6,0.6c0.6,0.6,1.8,1.2,2.4,1.8c0,0,0,0,0.6,0c0.6,0.6,1.8,1.2,2.4,1.8l0,0c0.6,0.6,1.8,1.2,2.4,1.8l0,0c20.9,14.9,47.7,21.5,77,21.5c70.4,0,109.8-24.5,111-25.1l0,0l0,0c57.9-34.6,108-76.4,121.1-160.5C739.3,381.5,736.3,355.9,729.1,333.2"/>
</svg>
